<?xml version="1.0" standalone="no"?>
<!DOCTYPE svg PUBLIC "-//W3C//DTD SVG 20010904//EN"
 "http://www.w3.org/TR/2001/REC-SVG-20010904/DTD/svg10.dtd">
<svg version="1.0" xmlns="http://www.w3.org/2000/svg"
 width="1942.000000pt" height="1942.000000pt" viewBox="0 0 1942.000000 1942.000000"
 preserveAspectRatio="xMidYMid meet">
<metadata>
Created by potrace 1.11, written by Peter Selinger 2001-2013
</metadata>
<g transform="translate(0.000000,1942.000000) scale(0.100000,-0.100000)"
fill="#000000" stroke="none">
<path d="M5001 12856 c-19 -23 -2 -46 35 -46 41 0 57 26 29 46 -24 18 -49 18
-64 0z"/>
<path d="M5161 12856 c-13 -16 -4 -46 14 -46 7 0 24 -9 38 -20 14 -11 32 -20
40 -20 8 0 26 -9 40 -20 14 -11 34 -20 45 -20 10 0 27 -9 37 -20 10 -11 30
-20 45 -20 15 0 35 -9 45 -20 10 -11 27 -20 37 -20 11 0 44 -20 72 -45 77 -66
116 -58 102 19 -5 26 -23 47 -80 95 -41 33 -81 61 -89 61 -8 0 -24 9 -37 20
-13 11 -26 20 -29 21 -28 3 -44 10 -67 28 -22 18 -41 21 -114 21 -62 0 -91 -4
-99 -14z"/>
<path d="M8423 12804 c-8 -21 13 -42 28 -27 13 13 5 43 -11 43 -6 0 -13 -7
-17 -16z"/>
<path d="M15787 12726 c-3 -7 -3 -32 0 -54 5 -38 4 -41 -21 -48 -32 -8 -43 1
-48 36 -4 32 -28 36 -56 9 -30 -27 -27 -73 6 -77 12 -2 27 -12 32 -23 8 -13
21 -19 45 -19 21 0 35 -5 36 -12 0 -7 1 -30 2 -52 2 -46 26 -68 51 -47 11 9
16 31 16 69 0 37 5 61 16 73 9 10 18 36 21 59 5 35 2 45 -22 71 -30 31 -69 38
-78 15z"/>
<path d="M8460 12701 c-15 -29 -12 -55 9 -82 10 -14 26 -41 34 -62 9 -20 28
-49 43 -64 16 -15 30 -44 34 -63 4 -27 11 -36 28 -38 28 -4 62 23 62 49 0 10
-16 30 -35 44 -26 21 -35 36 -41 70 -3 24 -15 52 -25 61 -10 9 -19 27 -19 40
0 15 -11 29 -34 43 -41 26 -43 26 -56 2z"/>
<path d="M10530 12682 c-37 -30 -22 -67 33 -81 25 -6 50 -17 57 -26 7 -8 22
-15 34 -15 11 0 32 -9 46 -20 14 -11 33 -20 42 -20 17 0 131 -74 174 -112 27
-24 77 -21 82 4 7 35 -150 198 -190 198 -8 0 -29 11 -48 25 -25 18 -47 25 -80
25 -25 0 -54 6 -65 14 -37 25 -61 27 -85 8z"/>
<path d="M16118 12627 c-30 -15 -38 -24 -38 -46 0 -64 45 -59 75 9 23 51 12
62 -37 37z"/>
<path d="M4955 12610 c-3 -11 -4 -28 -1 -38 10 -32 -28 -56 -89 -57 -29 -1
-59 -6 -67 -12 -8 -7 -41 -13 -73 -15 l-60 -3 2 -63 c2 -51 -1 -69 -17 -89
-11 -14 -20 -36 -20 -48 0 -12 -9 -30 -19 -39 -18 -17 -22 -17 -52 -2 -100 50
-176 -58 -94 -133 26 -23 34 -38 30 -51 -4 -13 2 -24 19 -36 14 -9 23 -20 20
-25 -9 -15 -102 -11 -111 5 -17 30 -85 67 -117 64 -27 -3 -31 -7 -31 -33 -1
-25 -5 -31 -27 -33 -14 -2 -32 4 -41 12 -9 9 -20 16 -25 16 -5 0 -37 -33 -71
-73 -91 -109 -124 -132 -198 -140 l-63 -7 0 45 c0 34 -4 47 -17 52 -21 8 -38
22 -118 100 -58 57 -105 85 -135 80 -8 -1 -43 4 -77 12 -34 7 -69 11 -77 8 -8
-3 -20 -24 -26 -46 -6 -24 -18 -42 -30 -46 -10 -3 -22 -15 -25 -25 -4 -12 -22
-24 -46 -31 -23 -7 -54 -28 -74 -51 -30 -33 -35 -45 -35 -88 0 -49 -1 -50 -30
-50 -52 0 -158 39 -165 61 -4 10 -10 19 -14 19 -3 0 -14 13 -24 29 -17 29 -14
61 5 61 5 0 8 10 6 23 -2 15 -11 23 -28 25 -60 7 -70 13 -95 62 -20 40 -30 50
-50 50 -15 0 -28 -7 -32 -17 -4 -10 -17 -32 -29 -48 -20 -26 -22 -38 -17 -88
6 -57 6 -57 -21 -57 -15 0 -38 7 -51 16 -16 11 -40 15 -72 12 l-47 -3 -9 45
c-8 39 -7 46 12 61 25 20 29 90 7 108 -14 11 -31 5 -75 -26 -2 -1 -5 -22 -6
-45 -2 -24 -8 -44 -16 -47 -7 -2 -23 -15 -36 -29 -20 -21 -28 -24 -67 -18 -52
8 -56 5 -63 -70 -4 -40 -11 -58 -25 -65 -16 -9 -19 -17 -13 -45 5 -30 3 -35
-18 -43 -13 -5 -35 -23 -50 -40 -26 -31 -60 -40 -73 -20 -4 8 -28 9 -72 5 -62
-7 -67 -5 -94 20 -37 36 -39 84 -5 84 29 0 60 31 52 53 -4 8 -45 32 -91 53
-47 21 -88 42 -91 47 -6 10 52 63 85 77 15 6 22 17 20 28 -3 15 -18 17 -108
20 -88 2 -108 6 -126 23 -18 17 -25 18 -47 8 -27 -12 -67 -80 -67 -113 0 -9
-13 -25 -30 -34 -38 -22 -51 -69 -24 -89 10 -7 34 -13 53 -14 49 -1 135 -49
139 -78 3 -22 1 -23 -40 -18 -23 3 -58 9 -77 13 -30 6 -37 3 -62 -26 -22 -25
-29 -43 -29 -76 0 -49 -24 -79 -71 -89 -47 -11 -44 -47 5 -56 29 -6 31 -26 4
-50 -19 -17 -37 -22 -86 -22 -71 0 -97 16 -108 67 -9 42 -22 56 -51 56 -15 0
-33 10 -45 26 -17 21 -26 24 -52 18 -17 -3 -37 -11 -44 -17 -9 -7 -16 -7 -24
1 -17 17 -68 15 -74 -2 -3 -8 7 -32 21 -54 18 -27 25 -48 20 -61 -3 -11 -1
-29 5 -41 9 -16 8 -22 -5 -26 -8 -4 -22 -1 -30 6 -16 13 -49 -6 -94 -54 -40
-42 -19 -62 61 -56 62 4 88 -43 49 -91 -14 -17 -32 -25 -72 -29 -49 -4 -54 -7
-57 -31 -2 -14 -21 -45 -42 -68 -22 -24 -40 -46 -40 -48 0 -2 16 -20 36 -38
27 -26 35 -40 32 -62 -2 -23 -8 -29 -35 -31 -46 -5 -50 -29 -11 -69 17 -18 35
-33 39 -33 4 0 23 -10 42 -22 35 -23 47 -44 47 -85 0 -43 -70 -58 -110 -23
-35 30 -94 27 -128 -7 -20 -20 -35 -26 -61 -24 -19 1 -40 6 -47 12 -14 11
-153 1 -171 -14 -21 -15 -15 -31 16 -50 37 -22 47 -51 28 -80 -8 -12 -18 -41
-22 -64 -3 -23 -13 -47 -21 -54 -8 -6 -14 -22 -14 -34 0 -26 -41 -46 -100 -49
-28 -1 -35 -5 -35 -21 0 -17 6 -20 39 -19 l38 1 -6 -43 c-5 -38 -2 -45 21 -63
14 -12 30 -21 34 -21 11 0 45 34 51 50 2 6 19 12 38 13 33 2 35 1 32 -30 -3
-24 2 -35 17 -45 18 -11 20 -19 14 -68 -6 -57 -30 -88 -65 -82 -9 2 -19 -2
-23 -8 -3 -5 -17 -10 -31 -10 -20 0 -24 5 -24 28 0 34 -5 40 -62 80 -56 38
-82 40 -104 7 -16 -25 -16 -61 3 -150 l8 -40 57 -3 c67 -4 80 -25 43 -68 -45
-52 -38 -102 11 -90 84 21 110 19 206 -16 34 -13 37 -46 10 -98 -18 -34 -19
-70 -2 -70 17 0 19 -49 3 -78 -15 -26 -16 -33 -4 -56 8 -14 22 -28 32 -31 23
-8 43 -59 35 -90 -5 -19 -20 -32 -54 -47 -26 -12 -52 -20 -59 -19 -29 4 -44
-45 -42 -139 2 -90 -2 -101 -34 -113 -16 -5 -19 -81 -4 -101 17 -23 47 -15 47
12 0 24 37 72 56 72 18 0 17 -20 -5 -105 -12 -46 -26 -74 -40 -83 -13 -9 -21
-25 -21 -41 0 -15 -9 -34 -20 -44 -17 -14 -20 -29 -20 -97 0 -66 -3 -83 -20
-100 -11 -11 -21 -30 -24 -42 -2 -13 -14 -42 -26 -65 -17 -34 -19 -46 -10 -63
12 -22 16 -21 67 19 23 18 33 34 33 54 0 15 9 37 20 49 11 12 20 28 20 35 0
23 45 14 73 -15 15 -15 27 -39 27 -53 0 -59 52 -78 66 -24 7 27 -12 85 -27 85
-5 0 -9 6 -9 14 0 8 14 18 32 21 26 6 35 3 51 -16 11 -13 24 -36 29 -51 5 -15
25 -36 45 -48 l35 -20 -7 -60 c-5 -42 -3 -65 5 -75 17 -20 25 -19 52 9 13 14
34 26 48 28 19 2 26 10 28 33 4 34 32 65 59 65 36 0 67 -161 44 -222 -10 -26
-14 -28 -69 -28 -51 0 -62 -4 -85 -28 -30 -32 -35 -63 -11 -86 17 -17 24 -18
101 -16 l53 1 0 -35 c0 -19 -4 -38 -10 -41 -5 -3 -10 -19 -10 -36 0 -31 5 -33
68 -29 22 1 42 -7 63 -24 17 -14 40 -26 53 -26 12 0 31 -7 42 -15 27 -18 39
-7 19 15 -22 24 -9 50 24 50 17 0 36 10 48 24 15 17 28 23 42 19 19 -5 21 -13
21 -98 0 -77 -3 -95 -19 -109 -19 -17 -35 -94 -25 -120 9 -24 34 -27 60 -7 28
22 60 18 87 -10 10 -11 22 -19 27 -19 6 0 10 -8 10 -17 0 -10 9 -33 20 -50 18
-30 24 -33 71 -33 40 0 58 -5 81 -25 38 -32 70 -40 109 -26 18 6 40 11 50 11
11 0 32 14 49 32 24 25 39 31 73 32 l42 1 0 -88 c0 -74 3 -90 18 -98 21 -12
22 -47 1 -77 -19 -28 -12 -52 16 -52 11 0 28 -9 37 -20 20 -23 54 -26 84 -7
17 10 22 9 35 -8 8 -11 12 -30 9 -45 -6 -28 2 -44 28 -53 9 -3 17 -12 17 -20
0 -7 13 -21 30 -30 23 -14 34 -15 49 -7 32 17 81 95 81 130 0 17 7 44 15 60
12 24 22 30 49 30 42 0 56 -28 65 -130 l6 -75 35 3 c50 4 63 25 57 94 -3 34
-1 60 6 67 7 7 63 11 153 11 150 0 169 6 153 45 -15 38 -10 60 18 73 15 6 32
12 38 12 7 0 20 9 31 21 16 18 26 20 70 15 51 -6 52 -6 78 34 27 41 50 49 87
30 10 -6 19 -18 19 -28 0 -9 7 -26 15 -36 8 -11 15 -34 15 -51 0 -25 12 -44
49 -83 38 -39 49 -59 48 -79 -2 -23 3 -29 23 -31 41 -5 70 -24 70 -46 0 -12
12 -34 26 -49 25 -28 26 -28 47 -10 12 10 28 26 35 36 8 10 26 17 47 17 28 0
40 8 71 46 34 41 38 53 38 100 l0 54 58 0 c32 0 58 -4 58 -10 0 -5 14 -10 31
-10 24 0 30 4 27 18 -2 9 -10 18 -18 18 -8 1 -21 2 -27 3 -8 1 -13 16 -13 37
l0 36 56 -7 c74 -9 104 9 104 64 0 22 -8 53 -17 69 -16 28 -16 32 -1 49 9 10
18 31 20 47 4 37 47 71 80 63 31 -8 78 -51 78 -71 0 -8 10 -30 23 -50 16 -25
29 -35 48 -36 14 0 34 -9 44 -20 23 -26 106 -28 126 -4 8 10 14 47 16 98 2 78
1 82 -28 108 -39 36 -40 74 0 83 17 3 39 1 51 -5 31 -17 62 -5 82 30 15 26 23
30 65 32 26 0 55 1 63 0 75 -4 168 -3 181 2 17 7 26 0 53 -39 13 -17 27 -20
127 -22 89 -2 115 -6 122 -18 11 -20 5 -128 -8 -132 -6 -2 -33 12 -61 30 -49
33 -74 37 -74 13 0 -6 9 -19 20 -29 14 -11 20 -29 20 -55 0 -28 7 -47 25 -66
29 -31 31 -48 10 -66 -20 -16 -95 -7 -111 14 -14 20 -43 21 -50 1 -6 -15 68
-93 135 -143 21 -16 31 -32 31 -51 0 -39 17 -51 72 -51 35 0 54 6 68 20 14 14
33 20 65 20 53 0 72 23 53 64 -6 14 -14 26 -19 26 -4 0 -14 17 -24 38 -9 20
-23 50 -31 65 -18 33 -11 77 11 77 9 0 20 -10 26 -22 20 -45 35 -66 67 -93 40
-33 67 -29 119 20 30 28 45 35 87 37 48 3 51 5 54 33 2 17 9 36 14 43 13 15
48 6 68 -18 8 -10 29 -20 45 -22 25 -2 30 -8 33 -33 1 -16 10 -47 19 -69 16
-36 16 -39 0 -51 -19 -14 -22 -36 -8 -63 5 -9 12 -25 15 -34 3 -9 23 -29 46
-43 22 -14 45 -37 50 -51 7 -19 16 -25 33 -22 18 2 23 11 27 49 7 60 52 111
90 102 14 -3 29 -12 33 -20 12 -19 76 -17 84 3 9 24 -10 49 -41 52 -26 3 -34
16 -16 27 6 3 10 17 10 30 0 42 104 63 128 25 14 -23 57 -25 137 -7 50 12 50
12 53 55 3 38 0 43 -23 52 -17 6 -25 16 -23 27 4 20 36 31 95 32 38 1 42 -1
45 -26 3 -24 8 -28 41 -31 27 -2 39 1 43 13 9 22 -14 45 -45 45 l-26 0 3 83
c4 117 8 130 35 122 12 -4 28 -14 34 -23 7 -8 23 -27 35 -41 13 -14 31 -39 41
-55 17 -26 22 -27 62 -22 36 6 47 3 73 -19 22 -19 32 -36 34 -63 3 -33 6 -37
34 -40 18 -2 47 -18 73 -42 34 -32 51 -40 89 -42 46 -3 47 -3 55 -46 7 -34 5
-49 -8 -68 -14 -22 -14 -27 0 -53 8 -17 24 -36 35 -44 15 -11 19 -21 15 -39
-4 -16 -1 -29 9 -37 24 -20 49 4 41 37 -7 29 7 42 48 42 46 0 46 29 0 69 -22
20 -43 46 -47 58 -4 11 -13 24 -21 27 -10 3 -15 20 -15 46 0 26 5 43 15 46 8
3 17 14 20 25 5 14 16 19 46 19 55 0 89 24 89 64 0 21 -7 35 -21 44 -15 10
-19 21 -17 50 3 34 6 37 38 40 19 2 39 8 44 13 6 5 33 9 62 9 l51 0 6 -52 c3
-29 0 -72 -6 -95 -12 -46 0 -73 33 -73 9 0 25 -9 35 -20 10 -11 28 -20 40 -20
22 0 55 -28 55 -47 0 -6 6 -16 14 -22 8 -7 18 -26 21 -42 13 -56 85 -65 85 -9
0 15 -7 30 -15 34 -27 10 -17 36 14 36 21 0 39 -12 74 -50 25 -27 50 -50 56
-50 5 0 14 -22 21 -50 10 -40 19 -54 47 -71 42 -26 68 -52 99 -101 42 -65 130
-158 151 -158 8 0 13 13 13 35 0 19 -4 35 -9 35 -5 0 -14 14 -21 30 -7 17 -16
30 -20 30 -4 0 -14 17 -23 38 -9 20 -22 45 -29 54 -9 13 -9 22 0 43 11 24 15
25 49 18 54 -11 94 -8 103 7 13 20 2 35 -37 54 -27 13 -38 14 -49 5 -20 -17
-27 -6 -19 31 9 42 44 58 90 41 25 -9 40 -9 54 -2 30 16 96 13 128 -6 19 -10
39 -14 56 -9 23 5 27 12 27 43 0 23 -7 42 -20 53 -24 21 -52 84 -45 102 4 9
23 12 62 11 45 -1 61 -6 74 -22 10 -12 26 -21 37 -21 24 0 62 -44 62 -71 0
-10 -14 -33 -31 -50 -22 -22 -29 -38 -25 -53 3 -11 6 -24 6 -27 0 -17 83 -59
115 -59 19 0 44 -5 55 -12 25 -16 35 -5 19 21 -18 27 -7 35 44 32 44 -2 53 6
71 62 4 12 16 17 39 17 60 0 115 89 94 153 -5 15 -6 43 -3 62 6 30 11 35 34
35 41 0 128 -59 141 -97 7 -17 25 -46 41 -63 28 -30 31 -31 52 -16 30 21 55
20 75 -4 10 -11 23 -20 30 -20 17 0 16 -10 -3 -55 -15 -38 -15 -38 13 -61 36
-30 53 -30 50 -2 -3 32 39 38 60 9 8 -12 21 -21 29 -21 16 0 19 -16 4 -25 -17
-10 -11 -50 10 -75 11 -13 20 -29 20 -36 0 -7 7 -20 16 -29 12 -12 19 -13 30
-4 21 17 17 67 -6 81 -11 7 -20 21 -20 31 0 15 7 18 38 15 31 -3 40 -8 54 -38
38 -81 58 -128 58 -136 0 -16 62 -75 73 -71 29 9 17 61 -39 170 -13 26 -24 53
-24 60 0 8 -11 24 -25 37 -34 32 -32 56 6 69 24 8 36 8 46 -1 21 -17 43 -76
43 -113 0 -19 8 -39 20 -50 12 -11 20 -31 20 -50 0 -40 22 -70 44 -62 25 10
23 130 -4 164 -25 33 -25 68 0 93 24 24 45 25 84 5 15 -8 42 -15 58 -15 27 0
30 3 23 23 -13 43 -17 75 -8 80 4 3 38 8 75 12 l66 7 27 -41 c32 -48 60 -53
94 -17 21 23 23 30 16 95 -7 68 -6 71 16 79 18 7 32 3 64 -20 22 -16 44 -36
48 -44 4 -8 14 -14 21 -14 14 0 36 -42 36 -68 -1 -23 -24 -52 -42 -52 -20 0
-48 -32 -48 -55 0 -33 40 -85 65 -85 14 0 26 -7 30 -19 5 -16 31 -30 57 -31 4
0 8 10 10 23 4 28 38 34 73 11 28 -18 38 -14 59 28 12 23 18 24 68 12 15 -3
40 0 58 7 32 15 50 55 50 115 0 45 35 86 67 78 29 -8 62 -38 82 -77 8 -15 18
-27 23 -27 5 0 9 -17 8 -37 -3 -58 -2 -60 32 -81 23 -15 37 -18 49 -11 10 5
27 9 38 9 17 0 21 6 21 30 0 29 2 30 44 30 25 0 48 -4 51 -10 15 -24 117 -2
147 31 11 13 30 19 60 19 34 0 50 6 76 31 17 16 32 37 32 45 0 7 9 23 21 35
15 15 20 32 19 62 -1 23 -1 48 -1 55 2 19 35 14 49 -8 7 -11 17 -20 23 -20 21
0 39 -29 39 -64 0 -44 22 -66 65 -66 26 0 39 -7 55 -30 19 -27 26 -30 56 -24
21 4 40 2 49 -6 14 -12 35 -6 35 10 0 16 50 60 69 60 27 0 80 -29 91 -51 14
-26 32 -24 60 6 24 25 54 33 65 16 3 -5 19 -12 35 -16 27 -6 37 0 105 69 72
72 99 88 121 67 5 -5 23 -11 39 -13 25 -2 30 -8 33 -33 1 -16 8 -40 14 -53 9
-18 9 -28 0 -42 -7 -11 -12 -48 -12 -83 0 -58 3 -66 33 -95 18 -18 38 -32 45
-32 24 0 60 23 70 45 6 13 25 31 42 42 29 17 32 21 27 61 -4 34 -1 45 14 53
23 12 66 2 82 -20 18 -26 59 -51 82 -51 11 0 37 11 57 25 59 40 102 32 181
-35 9 -8 32 -15 49 -16 25 -2 46 -16 101 -73 38 -39 76 -71 84 -71 19 0 103
-58 103 -71 0 -17 74 -6 77 11 3 15 -90 120 -106 120 -15 0 -91 72 -91 85 0 7
-7 18 -15 25 -26 21 -17 30 31 30 37 0 53 -6 81 -30 18 -17 40 -30 48 -30 8 0
31 -11 51 -25 20 -14 40 -23 44 -20 4 3 28 -17 54 -44 29 -32 55 -51 73 -53
21 -2 29 -9 31 -28 5 -32 22 -52 38 -46 7 3 24 -4 38 -15 34 -27 57 -21 69 16
5 17 19 40 30 52 19 21 29 23 125 23 105 0 105 0 138 33 37 36 42 52 18 61
-23 9 -10 95 17 114 10 7 19 21 19 31 0 24 25 45 45 37 8 -3 15 -14 15 -24 0
-10 9 -28 20 -40 11 -12 20 -28 20 -37 0 -8 5 -24 12 -35 10 -15 9 -22 -6 -39
-10 -11 -16 -28 -14 -38 3 -15 13 -18 70 -18 48 0 71 -5 85 -17 26 -23 46 -23
68 2 10 11 28 20 39 20 12 0 37 14 55 30 31 29 32 32 17 49 -22 24 -20 31 8
31 15 0 33 -12 50 -35 18 -23 35 -35 52 -35 28 0 32 23 9 66 -19 37 -19 108
-1 123 21 17 65 3 71 -23 2 -11 7 -42 10 -68 6 -49 43 -92 72 -86 8 2 26 30
41 63 28 62 54 95 73 95 7 0 22 11 35 26 24 25 24 25 54 7 17 -10 43 -30 57
-46 26 -26 27 -29 15 -73 -14 -50 -6 -76 29 -94 14 -8 18 -17 13 -32 -8 -25
50 -88 82 -88 39 0 93 95 92 162 -2 68 15 98 55 98 23 0 40 -8 55 -25 17 -19
31 -25 65 -25 23 0 53 7 65 16 26 18 52 12 52 -10 0 -21 39 -46 71 -46 17 0
37 12 58 35 26 29 39 35 70 35 31 0 44 -6 65 -31 14 -17 26 -35 26 -40 0 -16
88 -49 129 -49 25 0 44 -7 56 -20 13 -14 31 -20 61 -20 24 0 45 4 48 8 11 18
-7 51 -35 62 -16 7 -29 16 -29 20 0 4 -15 11 -34 14 -48 9 -84 41 -92 81 -11
62 -19 63 186 -4 36 -12 75 -21 86 -21 12 0 27 -7 34 -15 7 -8 24 -15 39 -15
18 0 35 -11 53 -33 29 -37 83 -67 118 -67 16 0 20 4 16 16 -10 25 13 95 37
115 12 10 31 18 43 19 11 0 39 9 62 20 87 42 192 7 207 -69 2 -11 7 -26 10
-31 12 -19 53 -10 73 15 11 13 43 32 73 42 44 15 56 24 64 48 5 17 12 32 16
35 14 11 29 51 24 61 -22 34 97 57 125 24 12 -15 51 -20 63 -9 10 11 -44 74
-64 74 -10 0 -25 10 -33 21 -8 12 -25 27 -37 33 -27 13 -43 64 -28 83 14 16
105 0 94 -16 -2 -5 9 -27 26 -50 27 -38 34 -42 67 -39 l37 3 -3 113 -3 113 30
30 c17 16 40 29 51 29 41 0 96 -33 116 -69 10 -19 33 -45 51 -56 129 -81 120
-77 152 -61 46 24 59 50 53 104 -2 26 -11 55 -19 64 -8 9 -12 22 -8 27 10 18
-4 49 -26 56 -14 5 -19 14 -17 28 3 19 10 22 59 23 80 2 112 20 124 70 6 22
17 48 27 57 9 9 18 21 20 27 2 6 38 14 80 19 60 5 83 12 102 30 23 21 27 22
78 11 46 -10 68 -8 176 13 68 14 129 31 137 37 20 16 19 46 -1 54 -29 11 -149
5 -189 -9 -33 -12 -48 -13 -82 -3 -81 23 -43 69 69 83 36 5 63 14 74 26 13 15
31 19 83 19 55 0 68 3 79 20 16 26 70 26 114 0 23 -13 38 -16 48 -10 8 5 27
10 41 10 14 0 34 9 44 20 18 20 18 21 -3 43 -34 36 -23 113 20 145 10 7 18 19
18 26 0 7 20 30 44 52 25 22 48 52 51 67 9 35 -11 60 -41 53 -17 -5 -24 -1
-30 16 -3 13 -12 30 -18 38 -7 8 -13 36 -14 63 -2 38 1 48 15 53 36 12 66 29
70 42 3 7 -1 27 -9 45 -22 46 -48 131 -48 156 0 15 9 23 32 29 69 18 55 104
-20 126 -20 6 -35 20 -43 38 -12 29 -46 41 -104 36 -28 -3 -30 -1 -28 31 1 27
13 45 62 92 50 49 66 59 95 59 20 0 54 9 76 21 34 18 40 26 40 54 0 26 -5 35
-23 40 -12 4 -34 19 -50 33 -23 22 -36 26 -85 25 -31 -1 -75 -8 -97 -16 -58
-22 -79 -10 -83 45 -2 34 2 51 20 73 26 34 68 120 68 142 0 8 -10 29 -22 45
-28 40 -26 128 3 169 10 15 19 34 19 42 0 9 5 17 10 19 12 4 35 136 26 145 -3
4 -15 -2 -25 -11 -25 -22 -62 -17 -76 10 -25 50 -64 70 -90 45 -6 -5 -41 -11
-80 -13 l-70 -3 -10 32 c-6 17 -18 40 -28 51 -33 36 -15 102 29 102 39 0 88
25 107 54 10 14 23 26 30 26 16 0 57 42 57 58 0 17 64 62 88 62 19 0 82 53 82
69 -1 25 -54 55 -93 53 -17 -2 -53 11 -85 28 -30 16 -66 30 -79 30 -32 0 -63
17 -63 35 0 10 -11 15 -36 15 -30 0 -37 -4 -45 -30 -8 -22 -17 -30 -35 -30
-14 0 -36 -11 -49 -24 -13 -14 -33 -27 -43 -31 -11 -3 -32 -17 -48 -30 -46
-39 -68 -32 -116 38 -10 14 -30 28 -46 32 -19 4 -37 19 -53 46 -21 35 -86 79
-117 79 -5 0 -26 16 -46 35 -21 19 -41 35 -46 35 -27 0 -14 116 16 141 20 16
17 42 -6 72 -25 32 -25 49 0 72 12 11 20 31 20 49 0 18 9 49 20 71 17 34 20
59 20 180 -1 107 -4 145 -15 159 -10 13 -15 43 -15 86 0 54 -4 70 -20 85 -11
10 -20 28 -20 40 0 29 -62 88 -83 79 -21 -8 -23 -57 -4 -76 26 -25 36 -55 34
-96 -1 -26 5 -47 16 -60 14 -16 17 -40 17 -158 0 -130 -1 -140 -21 -152 -15
-10 -19 -20 -15 -37 5 -20 2 -26 -19 -31 -44 -11 -56 0 -49 48 4 24 13 50 20
59 10 11 14 49 14 136 0 105 -3 124 -20 146 -11 14 -20 37 -20 51 0 17 -15 42
-45 73 -25 25 -45 55 -45 65 0 23 -36 38 -73 31 -20 -4 -32 -16 -42 -40 -8
-19 -36 -55 -62 -79 -41 -38 -54 -44 -92 -44 -30 0 -48 -6 -57 -17 -12 -17
-17 -14 -63 32 -32 33 -50 61 -53 80 -3 26 -9 31 -44 40 -24 6 -54 23 -70 41
-42 44 -75 64 -109 63 -17 0 -55 4 -85 9 -67 11 -79 7 -87 -28 -7 -39 -78
-109 -116 -117 -72 -14 -94 -54 -66 -117 9 -20 9 -29 -1 -41 -17 -20 -93 -20
-110 0 -7 8 -25 15 -39 15 -40 0 -110 72 -117 122 -6 38 -42 78 -69 78 -6 0
-20 16 -31 36 -26 49 -46 61 -78 46 -14 -6 -26 -19 -26 -29 0 -9 -10 -27 -22
-40 -20 -21 -20 -26 -8 -62 7 -21 9 -44 5 -51 -8 -12 -61 -5 -82 12 -7 6 -32
7 -57 4 -24 -4 -46 -3 -49 1 -8 13 10 146 24 181 11 26 11 36 1 52 -17 28 -15
35 12 48 15 7 25 21 28 41 4 28 2 31 -23 31 -41 0 -44 16 -14 60 43 62 16 117
-38 76 -9 -7 -28 -11 -42 -9 -20 4 -25 0 -31 -23 -4 -16 -15 -40 -26 -53 -22
-29 -24 -98 -3 -125 8 -11 15 -33 15 -49 0 -17 8 -36 18 -44 12 -10 14 -16 5
-19 -7 -3 -13 -23 -13 -45 0 -30 -5 -42 -24 -55 -14 -8 -26 -23 -28 -32 -3
-13 -14 -17 -48 -17 l-45 0 3 -42 c2 -31 -1 -43 -11 -43 -8 0 -27 -18 -42 -40
-15 -22 -30 -40 -34 -40 -3 0 -19 18 -35 40 -17 22 -35 40 -42 40 -7 0 -15 9
-19 19 -3 10 -17 22 -30 25 -16 4 -25 13 -25 26 0 12 -10 24 -24 29 -25 10
-36 30 -36 67 0 29 31 39 95 30 50 -8 55 -1 28 42 -22 36 -43 52 -68 52 -11 0
-28 9 -38 20 -9 11 -28 20 -42 20 -20 0 -25 5 -25 24 0 43 -10 56 -44 56 -24
0 -41 -10 -73 -44 -39 -41 -45 -44 -88 -43 -61 3 -80 -20 -47 -56 30 -31 29
-57 -2 -57 -13 0 -29 7 -36 15 -13 16 -47 20 -66 7 -7 -4 -27 -36 -45 -72 -18
-36 -46 -77 -62 -91 -16 -14 -28 -32 -27 -40 6 -36 0 -39 -69 -39 -68 0 -69 1
-97 38 -24 31 -29 47 -30 96 -1 55 -4 63 -40 102 -21 23 -52 46 -69 50 -16 4
-36 16 -43 26 -7 10 -22 18 -33 18 -14 0 -19 -7 -19 -29 0 -17 5 -33 10 -36
17 -10 12 -72 -6 -79 -9 -3 -46 -6 -83 -6 -68 0 -91 -10 -91 -40 0 -25 16 -43
41 -44 20 -1 25 -7 27 -37 3 -30 -1 -37 -23 -47 -37 -17 -95 -15 -117 5 -18
16 -21 16 -47 0 -16 -9 -37 -17 -48 -17 -23 -1 -83 -55 -83 -76 0 -30 21 -55
43 -52 18 3 22 -2 22 -27 0 -23 -6 -32 -28 -39 -26 -9 -50 -5 -129 21 -25 8
-34 -23 -14 -46 9 -10 16 -25 16 -34 0 -9 7 -20 17 -25 11 -7 16 -24 17 -53 1
-43 0 -44 -34 -47 -28 -2 -43 5 -79 35 -35 30 -54 39 -95 43 -45 4 -51 8 -54
30 -5 34 -19 48 -50 52 -26 3 -27 6 -33 75 -3 47 -11 79 -22 91 -21 23 -22 32
-2 32 8 0 29 -18 46 -40 26 -32 39 -40 66 -40 32 0 33 1 33 40 0 27 -7 47 -20
60 -17 17 -20 31 -18 83 3 59 4 62 29 65 15 2 33 -4 42 -12 18 -19 33 -20 42
-5 8 12 3 18 -95 116 -41 41 -69 77 -65 83 9 14 -13 40 -34 40 -9 0 -34 -9
-55 -20 -28 -14 -50 -18 -81 -13 -89 12 -116 -49 -50 -111 30 -29 35 -40 35
-79 0 -25 -4 -48 -10 -52 -19 -11 -59 7 -62 28 -8 54 -136 60 -161 8 -10 -21
-21 -27 -56 -31 -30 -3 -47 -11 -55 -25 -6 -11 -12 -22 -13 -24 -2 -2 -23 -7
-48 -11 -41 -6 -47 -4 -85 30 l-41 37 1 79 c1 43 -5 102 -12 129 -12 43 -19
52 -48 61 -23 8 -37 19 -40 35 -7 27 -47 39 -62 17 -5 -7 -6 -32 -3 -54 5 -38
4 -42 -22 -52 -58 -22 -70 -22 -96 -2 -30 24 -70 26 -92 4 -15 -15 -15 -18 1
-43 9 -14 27 -35 41 -47 21 -18 23 -24 12 -47 -9 -19 -24 -29 -61 -38 -46 -10
-52 -10 -78 10 -24 17 -43 21 -103 21 -43 0 -78 -5 -85 -12 -16 -16 -16 -88 1
-89 6 -1 21 -2 32 -3 25 -1 31 -29 11 -49 -10 -10 -36 -15 -82 -15 -90 -1
-100 -11 -75 -79 41 -113 1 -166 -84 -110 -25 16 -36 32 -41 57 -12 65 -28 80
-89 80 l-54 0 -12 43 c-7 23 -11 57 -10 76 2 46 -13 61 -66 61 -34 0 -53 -6
-75 -26 -17 -14 -40 -24 -52 -22 -18 3 -22 12 -27 58 -3 31 -11 66 -18 79 -28
51 12 67 61 26 34 -28 55 -29 72 -3 8 14 3 23 -29 53 -34 29 -46 35 -80 32
l-40 -2 -7 62 c-8 73 -12 83 -38 83 -13 0 -21 -9 -25 -27 -14 -69 -19 -77 -50
-78 -26 0 -30 -4 -33 -33 -3 -27 4 -39 37 -71 23 -22 42 -45 42 -53 2 -22 5
-32 14 -52 5 -12 3 -21 -6 -27 -19 -12 -25 -11 -43 6 -28 28 -56 10 -35 -23 9
-15 8 -24 -6 -46 -15 -23 -24 -27 -46 -22 -28 5 -59 -13 -59 -35 0 -5 -12 -9
-26 -9 -18 0 -38 -12 -60 -36 -28 -29 -34 -43 -34 -78 0 -41 -19 -74 -33 -60
-10 10 -57 -25 -57 -41 0 -8 -14 -27 -31 -42 -18 -16 -39 -35 -47 -43 -11 -10
-41 -16 -99 -17 -78 -2 -85 -1 -105 23 -16 18 -21 35 -19 63 2 34 -2 42 -31
62 -18 13 -41 29 -52 34 -11 6 -26 30 -33 54 -7 25 -24 56 -38 71 -14 14 -25
30 -25 35 0 27 -35 95 -51 100 -11 4 -19 12 -19 18 0 17 -86 107 -102 107 -7
0 -42 27 -78 60 -39 36 -73 60 -87 60 -12 0 -27 9 -33 20 -9 17 -21 20 -86 20
-57 0 -76 -3 -80 -15 -10 -26 16 -45 60 -45 42 0 91 -27 147 -80 15 -14 36
-32 47 -40 26 -19 39 -60 19 -60 -8 0 -17 10 -20 21 -6 22 -25 23 -69 4 -13
-5 -18 -3 -18 9 0 20 -30 36 -68 36 -16 0 -35 6 -41 14 -14 16 -86 36 -134 36
-49 0 -59 -18 -57 -97 5 -171 4 -176 -46 -232 -50 -55 -79 -64 -108 -32 -12
13 -36 20 -91 24 -41 3 -89 13 -106 21 -42 21 -51 20 -96 -6 -20 -12 -43 -23
-49 -24 -17 -3 -84 -54 -84 -65 0 -4 -9 -11 -20 -14 -22 -7 -26 -36 -9 -64 18
-28 4 -68 -27 -74 -30 -5 -58 20 -80 72 -8 19 -40 60 -70 90 -51 51 -60 56
-101 57 -42 1 -50 6 -94 55 -27 30 -49 63 -49 74 0 31 -56 75 -95 75 -39 0
-55 -15 -55 -50 0 -5 -17 -10 -38 -10 -50 0 -62 -14 -62 -71 0 -34 -5 -52 -18
-61 -9 -7 -26 -26 -36 -42 -13 -20 -21 -25 -29 -17 -6 6 -35 11 -63 11 -47 0
-55 3 -75 31 l-22 31 21 43 c17 35 19 50 12 77 -6 18 -10 45 -10 59 0 15 -9
38 -21 53 -18 23 -20 34 -14 91 10 87 1 128 -31 145 -24 13 -27 12 -60 -22
-19 -20 -34 -41 -34 -47 0 -6 -10 -16 -22 -22 -13 -7 -44 -31 -70 -55 -26 -24
-54 -44 -62 -44 -27 0 -47 13 -56 34 -9 24 -56 53 -67 42 -4 -4 -2 -15 5 -24
21 -30 24 -41 18 -67 -5 -21 -12 -25 -41 -25 -29 0 -35 -4 -35 -21 0 -44 19
-61 63 -57 36 3 42 0 48 -22 11 -40 10 -218 -1 -225 -6 -4 -32 -7 -58 -7 -31
0 -54 -6 -67 -17 -12 -11 -44 -21 -77 -25 -77 -8 -107 -21 -118 -51 -12 -31
-47 -46 -122 -51 -49 -4 -58 -2 -72 17 -8 12 -12 27 -10 34 8 20 -72 85 -106
85 -20 0 -33 7 -41 23 -13 25 -134 144 -169 167 -13 8 -34 25 -46 38 -11 12
-33 22 -46 22 -15 0 -32 9 -40 22 -9 14 -26 22 -47 24 -20 1 -39 10 -47 23
-12 16 -26 21 -62 21 -36 0 -50 5 -60 20 -18 29 -126 29 -142 1 -5 -11 -26
-25 -46 -31 -34 -11 -38 -11 -61 14 -25 27 -85 37 -98 16 -10 -16 -76 -56
-104 -63 -17 -4 -29 1 -46 19 -25 27 -50 31 -59 9 -3 -8 -2 -44 1 -81 6 -63 5
-67 -22 -90 -43 -37 -103 -26 -65 12 8 8 5 20 -7 42 -17 30 -17 33 1 66 l18
34 -28 31 c-15 17 -33 31 -39 31 -12 0 -55 -41 -55 -53 0 -4 -19 -27 -43 -51
-45 -48 -106 -68 -142 -48 -32 17 -46 79 -33 150 11 59 10 63 -12 87 -19 20
-24 35 -21 64 3 44 -7 54 -58 57 -55 3 -71 -4 -71 -33 0 -25 -34 -62 -57 -63
-8 0 -13 -14 -13 -37 0 -71 -8 -83 -51 -83 -25 0 -39 5 -39 13 0 23 -64 77
-91 77 -16 0 -42 -16 -71 -43 -27 -27 -50 -41 -60 -38 -8 3 -32 25 -53 49 -37
40 -42 42 -97 42 -53 0 -59 2 -72 28 -31 57 -100 111 -213 167 -70 34 -99 43
-91 28 3 -5 11 -23 18 -41 8 -17 22 -35 32 -38 10 -3 18 -9 18 -15 0 -5 17
-19 38 -33 72 -46 112 -90 112 -124 0 -30 -2 -32 -27 -26 -55 12 -63 16 -73
35 -7 12 -21 19 -39 19 -19 0 -40 12 -67 40 -29 29 -47 40 -70 40 -17 0 -37 7
-44 15 -7 8 -20 15 -29 15 -10 0 -51 34 -93 75 -78 77 -111 92 -123 55z
m10915 -604 c0 -3 -4 -8 -10 -11 -5 -3 -10 -1 -10 4 0 6 5 11 10 11 6 0 10 -2
10 -4z m-4130 -46 c0 -5 -4 -10 -10 -10 -5 0 -10 5 -10 10 0 6 5 10 10 10 6 0
10 -4 10 -10z m4170 6 c0 -3 -4 -8 -10 -11 -5 -3 -10 -1 -10 4 0 6 5 11 10 11
6 0 10 -2 10 -4z m-13383 -799 c2 -2 4 -286 6 -631 2 -532 4 -628 16 -636 16
-9 91 23 91 39 0 4 11 20 25 35 14 15 25 31 25 36 0 10 20 36 50 69 9 9 29 36
45 61 15 25 41 58 57 75 15 16 28 35 28 41 0 6 24 43 54 82 30 40 57 81 61 92
3 11 10 20 15 20 4 0 20 21 36 48 24 41 45 71 84 119 6 7 10 16 10 22 0 10 43
63 73 90 9 8 17 23 17 31 0 9 16 34 36 56 19 21 43 50 52 64 9 14 33 48 54 76
21 28 38 55 38 61 0 5 8 19 18 31 30 34 52 66 65 92 l13 25 400 5 c220 3 408
4 417 2 27 -5 19 -35 -19 -72 -20 -19 -51 -57 -69 -85 -18 -27 -41 -59 -51
-70 -28 -31 -64 -83 -64 -93 0 -5 -17 -27 -38 -48 -22 -22 -52 -59 -68 -84
-15 -25 -39 -56 -53 -70 -13 -14 -47 -57 -76 -95 -29 -39 -60 -77 -69 -85 -10
-7 -27 -31 -39 -53 -35 -64 -40 -71 -75 -107 -18 -19 -40 -48 -49 -64 -16 -32
-27 -45 -59 -79 -12 -12 -39 -47 -61 -77 -22 -30 -56 -71 -75 -90 -19 -19 -44
-53 -56 -75 -11 -22 -29 -49 -40 -61 -37 -38 -45 -64 -31 -90 7 -13 16 -24 21
-24 4 0 8 -6 8 -12 0 -15 26 -49 88 -116 23 -26 58 -69 77 -97 19 -27 57 -75
85 -104 27 -30 50 -59 50 -65 0 -5 22 -35 48 -65 27 -31 62 -76 79 -101 17
-25 54 -69 82 -99 28 -30 51 -60 51 -68 0 -7 4 -13 9 -13 5 0 12 -8 15 -17 3
-10 29 -42 56 -71 28 -30 58 -66 68 -80 20 -31 33 -48 85 -105 21 -23 45 -56
53 -73 8 -17 36 -55 63 -85 26 -30 61 -74 78 -99 17 -25 40 -54 52 -64 51 -46
50 -46 -423 -46 l-445 0 -25 33 c-15 19 -26 39 -26 45 0 7 -4 12 -10 12 -5 0
-10 5 -10 10 0 6 -20 35 -45 66 -25 30 -45 59 -45 64 0 6 -22 35 -50 65 -27
30 -50 60 -50 66 0 9 -34 53 -158 208 -15 18 -33 45 -41 59 -15 28 -25 42 -56
75 -22 23 -36 46 -58 92 -9 17 -29 44 -45 61 -16 17 -37 44 -45 60 -8 16 -31
46 -51 68 -20 21 -36 41 -36 45 0 3 -11 19 -25 35 -14 16 -25 35 -25 43 0 7
-7 13 -15 13 -8 0 -20 10 -26 23 -7 12 -15 24 -19 27 -4 3 -13 19 -21 35 -12
26 -20 30 -54 30 -33 0 -40 -4 -46 -25 -4 -14 -7 -290 -8 -615 l0 -590 -342
-3 c-189 -1 -346 1 -351 6 -6 6 -11 1570 -8 2765 0 10 9 21 19 25 20 7 670 6
678 -1z m3976 -274 c-1 -151 -5 -278 -8 -282 -4 -3 -220 -8 -481 -11 -407 -4
-476 -7 -484 -20 -6 -8 -10 -123 -10 -261 0 -196 3 -249 14 -265 14 -18 32
-19 462 -22 409 -2 448 -4 460 -20 10 -13 13 -76 14 -263 l0 -247 -22 -6 c-13
-3 -220 -6 -460 -6 -383 0 -438 -2 -452 -16 -14 -13 -16 -51 -16 -257 0 -133
4 -247 8 -253 21 -32 53 -34 501 -34 247 0 455 -2 463 -5 10 -4 13 -59 11
-278 l-2 -272 -843 0 -843 0 -3 1397 -2 1398 827 2 c456 2 837 2 848 0 19 -3
20 -10 18 -279z m6067 271 c0 -9 -58 -87 -94 -127 -19 -21 -38 -47 -41 -58 -4
-10 -11 -19 -16 -19 -5 0 -9 -6 -9 -12 0 -7 -16 -28 -34 -46 -19 -18 -42 -49
-51 -69 -19 -40 -23 -45 -74 -101 -18 -20 -44 -53 -56 -72 -13 -19 -40 -53
-60 -75 -21 -22 -49 -58 -64 -79 -14 -22 -42 -57 -61 -79 -19 -21 -45 -57 -57
-79 -12 -22 -34 -54 -50 -71 -16 -18 -47 -59 -70 -92 -22 -34 -49 -67 -58 -75
-10 -8 -29 -33 -43 -55 -13 -22 -42 -58 -64 -80 -37 -38 -55 -64 -107 -148
-22 -37 -22 -38 -5 -65 10 -15 34 -45 55 -67 20 -22 58 -67 82 -100 25 -33 64
-79 87 -101 23 -23 51 -60 63 -82 12 -22 36 -56 53 -75 18 -19 50 -61 72 -93
22 -32 55 -72 73 -89 17 -16 47 -53 65 -82 19 -28 58 -78 87 -110 29 -32 64
-74 77 -93 13 -19 27 -37 30 -40 18 -16 90 -109 90 -116 0 -9 18 -31 83 -105
18 -20 49 -61 70 -91 21 -30 56 -72 78 -92 21 -21 37 -41 34 -47 -4 -5 -184
-9 -449 -9 l-444 0 -43 54 c-24 29 -57 73 -72 97 -52 83 -96 144 -126 179 -17
19 -43 54 -58 77 -47 70 -155 207 -175 221 -10 7 -18 21 -18 31 0 10 -9 26
-20 36 -11 10 -20 24 -20 32 0 7 -4 13 -9 13 -10 0 -71 85 -71 98 0 4 -16 25
-35 47 -20 22 -43 53 -51 69 -9 16 -32 47 -52 68 -20 21 -42 52 -50 69 -8 17
-44 60 -78 97 -106 112 -99 151 -102 -572 l-2 -616 -360 0 -360 0 2 1398 3
1397 358 3 357 2 0 -624 c0 -343 3 -631 6 -640 7 -17 44 -22 44 -6 0 6 11 15
24 21 13 6 29 23 36 38 6 14 29 49 51 76 21 28 59 75 83 106 25 32 55 77 67
100 12 24 29 49 38 56 10 6 28 33 41 59 14 26 37 60 52 76 16 17 28 34 28 40
0 5 19 35 43 66 23 31 50 69 59 83 9 14 30 39 47 55 17 16 31 36 31 44 0 8 16
33 35 55 20 22 43 54 52 70 9 17 19 32 22 35 14 11 71 94 71 104 0 5 18 31 40
57 22 26 40 54 40 61 0 7 12 27 28 43 l27 30 413 -3 c226 -1 412 -5 412 -8z
m4998 6 c9 0 12 -61 12 -272 0 -150 -4 -279 -8 -286 -7 -9 -114 -13 -485 -15
-375 -1 -479 -5 -489 -15 -10 -10 -13 -71 -13 -262 0 -226 2 -251 18 -267 16
-17 51 -18 470 -20 l452 -2 5 -263 c3 -145 4 -266 2 -270 -2 -5 -208 -8 -458
-8 -441 0 -455 -1 -474 -20 -20 -20 -20 -33 -20 -560 l0 -540 -345 0 c-269 0
-345 3 -345 13 -4 728 3 2782 9 2786 5 4 380 5 833 4 452 -2 829 -3 836 -3z
m-3335 -17 c18 -9 66 -18 107 -21 52 -3 82 -10 99 -23 13 -11 39 -19 58 -19
20 0 46 -9 60 -20 14 -11 35 -20 47 -20 11 0 32 -9 46 -20 14 -11 31 -20 38
-20 7 0 24 -7 38 -17 30 -19 75 -44 124 -69 32 -16 99 -65 132 -97 7 -7 33
-30 58 -52 25 -22 65 -64 89 -95 25 -30 61 -73 80 -96 20 -22 52 -67 71 -99
19 -32 45 -73 58 -92 12 -19 22 -40 22 -48 0 -8 11 -35 25 -61 14 -26 25 -57
25 -69 0 -13 6 -28 14 -34 7 -6 16 -38 19 -70 3 -33 12 -70 21 -83 24 -33 24
-492 0 -526 -8 -12 -18 -48 -21 -80 -3 -31 -11 -64 -18 -72 -8 -8 -17 -33 -21
-55 -4 -22 -15 -51 -25 -64 -11 -13 -19 -33 -19 -45 0 -12 -9 -29 -20 -39 -11
-9 -20 -26 -20 -36 0 -11 -6 -26 -13 -33 -7 -7 -29 -38 -49 -69 -20 -31 -49
-70 -65 -86 -28 -31 -119 -134 -138 -156 -5 -7 -39 -36 -75 -66 -36 -29 -69
-60 -73 -67 -4 -8 -16 -14 -26 -14 -10 0 -30 -9 -44 -20 -30 -24 -200 -110
-216 -110 -7 0 -29 -9 -51 -20 -22 -11 -52 -20 -67 -20 -15 0 -41 -9 -58 -20
-20 -13 -47 -20 -82 -20 -29 0 -72 -9 -98 -20 -40 -17 -69 -20 -215 -20 -146
0 -175 3 -215 20 -28 12 -69 20 -102 20 -40 0 -62 5 -80 20 -16 12 -41 20 -64
20 -21 0 -40 4 -44 9 -3 5 -22 15 -43 22 -46 14 -166 72 -170 81 -2 4 -19 12
-38 18 -19 6 -34 16 -34 21 0 6 -15 17 -32 25 -18 8 -43 21 -55 28 -28 16
-283 277 -283 290 0 6 -18 31 -39 57 -22 25 -43 58 -46 72 -4 14 -15 33 -26
43 -10 9 -19 25 -19 34 0 9 -9 27 -20 40 -11 13 -20 32 -20 42 0 11 -9 31 -20
45 -11 14 -20 40 -20 57 0 17 -7 42 -16 54 -8 12 -18 50 -21 85 -2 34 -11 75
-19 91 -20 42 -20 361 1 402 8 16 17 58 20 93 3 35 12 73 20 85 8 11 15 35 15
52 0 17 9 43 20 57 11 14 20 36 20 50 0 13 11 36 25 51 14 15 25 35 25 45 0
10 9 26 20 36 11 10 20 23 20 29 0 6 14 27 30 46 16 19 30 41 30 48 0 6 4 12
8 12 5 0 14 11 20 25 25 55 233 262 286 285 23 9 55 28 71 41 17 14 69 44 118
68 48 24 90 47 93 52 3 5 18 9 33 9 15 0 36 8 45 19 11 12 35 20 67 23 27 3
57 12 67 20 10 10 45 17 87 20 39 3 84 12 100 21 44 24 322 24 368 0z m-6632
-63 c10 -6 19 -21 19 -34 0 -13 7 -29 15 -36 8 -7 15 -21 15 -32 0 -11 9 -37
20 -57 10 -20 24 -55 30 -78 6 -24 15 -43 20 -43 6 0 10 -17 10 -39 0 -23 8
-48 20 -64 11 -14 20 -40 20 -57 0 -18 8 -44 19 -58 10 -15 21 -40 24 -57 6
-37 33 -111 51 -145 7 -14 11 -30 9 -37 -2 -6 5 -30 16 -52 12 -22 21 -51 21
-63 0 -13 9 -36 20 -53 11 -16 20 -38 20 -48 0 -10 9 -35 20 -57 11 -22 20
-50 20 -63 0 -13 9 -32 20 -42 13 -12 20 -31 20 -55 0 -22 8 -44 20 -58 11
-12 20 -34 20 -49 0 -15 9 -39 20 -53 11 -14 20 -36 20 -50 0 -14 9 -38 20
-55 11 -16 20 -42 20 -56 0 -15 9 -38 20 -52 13 -16 20 -40 20 -69 0 -25 8
-56 20 -76 11 -18 20 -51 20 -75 1 -51 15 -72 57 -81 27 -6 37 -3 57 17 14 14
27 42 31 63 3 22 10 53 16 69 6 17 15 51 19 77 5 25 16 60 24 77 9 16 16 40
16 53 0 13 7 31 15 41 7 11 17 37 20 60 4 22 14 47 21 55 8 7 14 28 14 46 0
18 9 45 20 59 11 14 20 40 20 60 0 20 7 41 19 51 10 9 21 35 24 57 3 22 12 48
21 58 9 10 16 29 16 43 0 14 9 37 20 51 11 14 20 38 20 55 0 16 9 41 20 55 11
14 20 37 20 52 0 14 9 43 19 63 26 50 61 144 61 162 0 9 6 24 14 35 7 11 17
36 21 55 4 19 13 45 21 57 8 12 14 33 14 46 0 12 9 40 20 62 11 22 20 49 20
60 0 12 5 26 11 32 6 6 15 33 20 59 5 26 13 50 17 53 4 4 12 20 17 36 l10 30
370 2 c209 2 376 -1 384 -6 12 -8 12 -13 -2 -34 -8 -13 -27 -53 -42 -88 -14
-35 -32 -76 -40 -91 -8 -14 -15 -39 -15 -55 0 -16 -9 -36 -20 -46 -11 -9 -20
-29 -20 -44 0 -14 -6 -34 -13 -42 -8 -9 -19 -35 -26 -58 -6 -24 -16 -43 -21
-43 -6 0 -10 -10 -10 -22 0 -13 -9 -37 -19 -54 -10 -17 -22 -45 -26 -63 -4
-18 -13 -35 -21 -38 -8 -3 -14 -19 -14 -39 0 -23 -6 -38 -20 -46 -12 -8 -23
-28 -27 -50 -3 -21 -12 -43 -19 -49 -8 -6 -14 -18 -14 -26 0 -9 -8 -32 -19
-52 -10 -20 -28 -61 -41 -91 -12 -30 -30 -73 -41 -95 -10 -22 -19 -44 -19 -50
0 -5 -9 -28 -19 -50 -33 -68 -51 -112 -51 -127 0 -8 -7 -23 -15 -34 -8 -10
-15 -31 -15 -45 0 -14 -9 -34 -20 -44 -11 -10 -20 -30 -20 -44 0 -14 -9 -37
-20 -51 -11 -14 -20 -33 -20 -42 0 -23 -21 -68 -32 -68 -4 0 -8 -10 -8 -21 0
-12 -9 -38 -19 -58 -10 -20 -25 -51 -31 -68 -7 -18 -16 -33 -21 -33 -5 0 -9
-13 -9 -28 0 -16 -9 -37 -20 -47 -11 -10 -20 -30 -20 -44 0 -14 -9 -37 -20
-51 -11 -14 -20 -31 -20 -38 0 -7 -16 -47 -35 -88 -19 -41 -35 -78 -35 -82 -1
-4 -9 -25 -20 -47 -11 -22 -20 -47 -20 -55 0 -8 -9 -28 -20 -45 -11 -16 -20
-39 -20 -51 0 -11 -7 -29 -15 -40 -8 -10 -15 -28 -15 -39 0 -11 -9 -31 -20
-45 -11 -14 -20 -36 -20 -48 0 -13 -9 -35 -20 -49 -11 -14 -20 -35 -20 -47 0
-11 -7 -30 -16 -41 -14 -19 -28 -20 -285 -23 -233 -3 -274 -1 -295 13 -13 8
-24 25 -24 37 0 12 -8 40 -18 62 -34 74 -91 211 -97 233 -3 11 -12 27 -20 33
-8 7 -15 24 -15 37 0 14 -9 36 -20 50 -11 14 -20 33 -20 42 0 10 -7 26 -15 37
-8 10 -15 26 -15 35 0 9 -8 27 -19 40 -10 13 -22 38 -25 56 -4 17 -14 37 -22
44 -8 6 -17 29 -20 50 -4 21 -15 49 -25 60 -11 12 -19 35 -19 50 0 15 -6 32
-14 36 -8 4 -17 20 -20 36 -8 45 -17 67 -27 67 -5 0 -9 11 -9 24 0 13 -9 35
-20 49 -11 14 -20 34 -20 44 0 11 -9 38 -20 61 -11 22 -20 46 -20 51 0 6 -9
30 -19 53 -11 24 -34 73 -50 111 -17 37 -31 73 -31 81 0 7 -9 25 -20 39 -11
14 -20 36 -20 50 0 13 -9 32 -20 42 -11 10 -20 28 -20 40 0 12 -8 33 -18 46
-11 13 -22 38 -26 54 -4 17 -14 37 -21 45 -7 8 -18 34 -24 58 -7 23 -16 42
-21 42 -4 0 -11 18 -15 39 -4 22 -13 45 -21 52 -8 6 -14 24 -14 40 0 16 -9 38
-20 49 -11 11 -20 29 -20 40 0 11 -13 49 -30 85 -16 36 -30 69 -30 74 0 9 -39
101 -66 156 -8 17 -16 41 -19 54 -2 13 -11 31 -20 41 -8 9 -15 25 -15 36 0 10
-9 30 -20 44 -11 14 -20 33 -20 43 0 11 -9 30 -20 44 -11 14 -20 36 -20 49 l0
24 366 0 c233 0 372 -4 385 -10z"/>
<path d="M13915 10585 c-22 -8 -52 -15 -67 -15 -15 0 -42 -9 -60 -20 -18 -11
-38 -20 -45 -20 -19 0 -144 -87 -192 -133 -24 -23 -62 -69 -84 -102 -23 -33
-46 -65 -52 -71 -6 -6 -19 -31 -29 -55 -10 -24 -27 -63 -37 -86 -11 -24 -19
-55 -19 -70 0 -16 -7 -46 -15 -68 -20 -55 -20 -305 0 -360 8 -22 15 -58 15
-80 0 -23 9 -53 20 -70 11 -16 20 -35 20 -42 0 -6 19 -44 42 -85 45 -80 194
-236 250 -263 44 -21 95 -50 110 -62 7 -6 35 -13 62 -17 27 -3 60 -13 72 -21
33 -21 249 -21 291 0 17 8 50 19 74 24 24 5 64 20 89 35 25 14 56 31 70 38 66
34 280 272 280 312 0 7 9 25 20 39 12 14 20 40 20 61 0 19 9 50 20 68 18 30
20 51 20 241 0 188 -2 212 -20 247 -11 22 -20 50 -20 63 0 76 -177 319 -286
392 -78 52 -185 105 -213 105 -14 0 -44 7 -66 15 -24 8 -77 14 -135 14 -58 0
-111 -6 -135 -14z"/>
<path d="M8114 12606 c-11 -29 1 -51 28 -54 22 -3 29 2 34 22 3 14 3 30 -1 35
-9 16 -55 13 -61 -3z"/>
<path d="M12633 12613 c-22 -8 -14 -33 22 -70 29 -30 37 -34 50 -23 23 19 18
56 -11 79 -27 21 -38 24 -61 14z"/>
<path d="M2046 12533 c-34 -34 -46 -139 -23 -206 16 -46 31 -61 50 -54 11 4
16 28 18 95 3 73 8 94 24 112 l20 22 -24 19 c-24 20 -52 25 -65 12z"/>
<path d="M1898 12500 c-50 -50 -45 -93 14 -118 35 -14 43 -2 28 43 -10 30 -9
36 9 54 23 23 18 52 -8 50 -9 -1 -28 -14 -43 -29z"/>
<path d="M11587 12513 c-11 -11 -8 -48 5 -61 17 -17 67 -15 74 3 4 8 -6 25
-23 39 -29 26 -44 31 -56 19z"/>
<path d="M7028 12459 c-32 -17 -58 -35 -58 -40 0 -5 -11 -14 -25 -19 -14 -5
-25 -14 -25 -20 0 -19 30 -23 49 -6 27 24 165 22 233 -4 35 -13 77 -20 124
-20 55 0 75 -4 91 -19 11 -11 37 -20 59 -21 67 -4 74 -2 74 25 0 14 -4 25 -8
25 -4 0 -28 20 -53 45 -26 26 -53 45 -67 45 -12 0 -34 7 -48 16 -18 13 -56 17
-157 20 -131 3 -132 3 -189 -27z"/>
<path d="M14051 12476 c-14 -17 -7 -36 14 -36 22 0 29 20 13 36 -13 13 -16 13
-27 0z"/>
<path d="M14459 12477 c-24 -18 -39 -52 -39 -86 0 -34 19 -41 40 -16 7 8 16
15 20 15 17 0 82 71 76 85 -7 18 -74 20 -97 2z"/>
<path d="M18132 12463 c2 -10 10 -18 18 -18 22 0 18 29 -3 33 -14 3 -18 -1
-15 -15z"/>
<path d="M6626 12454 c-11 -30 -6 -82 10 -95 32 -26 58 46 34 92 -13 23 -36
25 -44 3z"/>
<path d="M8334 12446 c-10 -26 1 -51 22 -54 26 -4 38 22 24 49 -13 22 -38 25
-46 5z"/>
<path d="M13494 12416 c-58 -26 -66 -116 -10 -116 38 0 63 30 71 83 7 53 -2
58 -61 33z"/>
<path d="M2462 12408 c-18 -18 -15 -113 3 -128 12 -10 18 -10 30 0 28 24 16
140 -15 140 -3 0 -11 -5 -18 -12z"/>
<path d="M18207 12413 c-14 -13 -7 -42 14 -56 11 -8 22 -29 24 -46 2 -18 13
-43 25 -58 11 -14 20 -32 20 -40 0 -8 16 -44 35 -82 24 -47 35 -81 35 -112 0
-24 6 -55 13 -68 36 -72 73 2 63 130 -6 84 -16 111 -77 219 -47 83 -125 141
-152 113z"/>
<path d="M14291 12388 c-11 -31 -4 -51 29 -83 33 -32 56 -28 66 9 5 21 -1 32
-31 61 -44 41 -53 43 -64 13z"/>
<path d="M14544 12351 c-29 -31 -55 -70 -59 -88 -6 -30 -4 -33 18 -33 13 0 31
7 38 16 7 9 22 20 34 26 84 39 100 53 103 96 l3 42 -43 -1 c-39 -1 -48 -7 -94
-58z"/>
<path d="M6744 12345 c-9 -36 17 -65 41 -45 23 19 15 64 -12 68 -17 3 -24 -3
-29 -23z"/>
<path d="M15136 12355 c-24 -24 -21 -82 5 -95 49 -27 85 9 77 76 -2 24 -8 30
-34 32 -19 2 -38 -3 -48 -13z"/>
<path d="M15336 12354 c-4 -10 -2 -22 3 -27 14 -14 43 0 39 20 -4 24 -34 28
-42 7z"/>
<path d="M11746 12314 c-10 -27 -7 -69 8 -89 11 -16 16 -17 29 -6 22 17 31 66
17 90 -13 25 -45 28 -54 5z"/>
<path d="M2677 12274 c-15 -15 -7 -45 11 -42 9 2 17 12 17 22 0 20 -16 31 -28
20z"/>
<path d="M4381 12267 c-14 -17 3 -41 23 -34 9 4 16 13 16 21 0 19 -26 28 -39
13z"/>
<path d="M9667 12183 c-32 -5 -31 -26 1 -31 11 -2 24 -12 27 -22 7 -21 39 -35
55 -25 13 8 13 41 0 66 -11 19 -24 21 -83 12z"/>
<path d="M10092 12118 c-21 -21 -14 -47 14 -54 37 -9 51 9 30 40 -18 29 -27
31 -44 14z"/>
<path d="M8335 12100 c-9 -15 4 -50 20 -50 19 0 27 17 20 40 -7 21 -30 27 -40
10z"/>
<path d="M12540 12086 c0 -30 16 -42 35 -26 25 21 19 50 -10 50 -20 0 -25 -5
-25 -24z"/>
<path d="M3090 12050 c0 -11 6 -20 13 -20 19 0 27 10 20 26 -8 21 -33 17 -33
-6z"/>
<path d="M3760 12050 c0 -5 5 -10 10 -10 6 0 10 5 10 10 0 6 -4 10 -10 10 -5
0 -10 -4 -10 -10z"/>
<path d="M8370 12013 c0 -28 16 -47 35 -40 25 10 15 51 -12 55 -17 3 -23 -2
-23 -15z"/>
<path d="M1194 11765 c-28 -42 6 -125 51 -125 58 0 73 66 27 118 -35 38 -56
40 -78 7z"/>
<path d="M18920 11591 c-15 -29 -12 -87 5 -101 24 -20 45 5 45 54 0 59 -29 86
-50 47z"/>
<path d="M467 11335 c-21 -52 56 -100 97 -60 21 21 10 43 -27 54 -18 5 -39 12
-48 15 -10 5 -19 1 -22 -9z"/>
<path d="M18922 11315 c-11 -23 -10 -24 8 -13 11 7 20 18 20 25 0 22 -16 14
-28 -12z"/>
<path d="M19162 11308 c-7 -13 -27 -43 -46 -68 -26 -34 -35 -55 -35 -86 -1
-33 -5 -43 -22 -47 -17 -5 -20 -12 -17 -44 2 -30 7 -38 23 -38 14 0 21 9 26
33 4 18 16 42 26 52 79 72 129 173 103 205 -18 22 -45 19 -58 -7z"/>
<path d="M18925 11131 c-3 -5 -1 -12 5 -16 12 -7 30 2 30 16 0 12 -27 12 -35
0z"/>
<path d="M18579 11098 c-7 -13 -18 -27 -25 -31 -8 -4 -14 -24 -14 -43 0 -50
24 -55 61 -13 35 41 45 74 29 94 -18 21 -37 18 -51 -7z"/>
<path d="M18752 11108 c-18 -18 -14 -46 7 -58 23 -12 51 10 51 40 0 27 -37 39
-58 18z"/>
<path d="M18890 11080 c0 -5 5 -10 10 -10 6 0 10 5 10 10 0 6 -4 10 -10 10 -5
0 -10 -4 -10 -10z"/>
<path d="M381 10991 c-7 -13 -6 -23 2 -36 12 -15 14 -15 26 -2 9 12 10 21 1
36 -13 26 -17 26 -29 2z"/>
<path d="M230 10783 c-8 -4 -21 -14 -30 -24 -8 -10 -36 -21 -61 -24 -41 -6
-47 -5 -52 14 -3 13 -13 21 -27 21 -21 0 -22 -3 -15 -55 6 -52 5 -55 -19 -61
-18 -4 -26 -13 -26 -28 0 -17 9 -24 43 -33 23 -7 60 -9 82 -6 32 4 44 1 59
-16 11 -12 23 -21 28 -21 4 0 17 -9 28 -20 25 -25 41 -25 71 -2 l22 19 -55 36
c-30 21 -60 37 -66 37 -20 0 -23 38 -6 65 17 27 30 30 53 16 20 -13 71 24 71
49 0 32 -56 50 -100 33z"/>
<path d="M19377 10013 c-4 -3 -7 -21 -7 -40 0 -29 3 -33 25 -33 23 0 25 4 25
40 0 32 -4 40 -18 40 -10 0 -22 -3 -25 -7z"/>
<path d="M19340 9891 c0 -12 6 -21 16 -21 9 0 14 7 12 17 -5 25 -28 28 -28 4z"/>
<path d="M152 9624 c-12 -8 -22 -24 -22 -34 0 -32 39 -110 57 -116 43 -14 100
-50 130 -82 39 -41 57 -38 61 13 5 60 -5 85 -33 85 -34 0 -32 26 5 58 37 32
38 56 5 78 -23 15 -31 15 -66 4 -32 -11 -47 -11 -73 -2 -40 15 -37 15 -64 -4z"/>
<path d="M217 8834 c-4 -4 -7 -25 -7 -46 0 -32 3 -39 18 -36 13 2 17 13 17 42
0 37 -13 55 -28 40z"/>
<path d="M130 8789 c0 -24 23 -21 28 4 2 10 -3 17 -12 17 -10 0 -16 -9 -16
-21z"/>
<path d="M316 8727 c-23 -17 -62 -134 -74 -224 -6 -40 -17 -82 -26 -95 -20
-29 -21 -72 -1 -88 21 -17 33 -4 41 45 3 22 14 48 25 58 13 12 19 31 19 63 0
31 7 54 20 71 11 14 20 35 20 45 0 11 9 31 20 45 44 56 9 119 -44 80z"/>
<path d="M166 8674 c-3 -9 -6 -26 -6 -38 0 -13 -9 -34 -20 -46 -12 -13 -20
-33 -18 -44 4 -27 36 -33 45 -9 3 10 14 27 24 38 30 34 30 115 0 115 -10 0
-22 -7 -25 -16z"/>
<path d="M40 8320 c0 -23 -5 -33 -20 -37 -18 -5 -20 -14 -20 -74 0 -50 4 -69
13 -69 20 0 37 21 37 46 0 12 9 33 21 47 29 38 24 111 -8 115 -20 3 -23 -1
-23 -28z"/>
<path d="M19077 8206 c-15 -19 -27 -39 -27 -45 0 -17 40 -13 87 10 34 17 43
26 41 43 -2 16 -11 22 -39 24 -31 3 -40 -2 -62 -32z"/>
<path d="M19330 8191 c-5 -11 -10 -28 -10 -39 0 -15 5 -18 25 -15 32 7 45 24
38 51 -7 27 -39 29 -53 3z"/>
<path d="M19190 8073 c-14 -2 -38 -10 -55 -18 -16 -7 -59 -21 -95 -30 -36 -10
-93 -26 -128 -37 -48 -15 -76 -18 -120 -13 -54 6 -60 5 -91 -23 -38 -33 -37
-62 1 -62 13 0 38 -9 56 -20 40 -25 52 -25 126 0 33 11 81 20 108 20 35 0 55
6 70 20 12 11 33 20 47 20 15 0 49 17 78 39 28 22 61 44 72 51 29 15 26 38 -5
50 -14 6 -28 9 -32 9 -4 -1 -18 -4 -32 -6z"/>
<path d="M17837 7443 c-12 -11 -8 -68 5 -81 14 -14 74 -16 82 -4 3 5 -8 28
-25 50 -29 40 -47 50 -62 35z"/>
<path d="M7510 7336 c0 -9 7 -16 16 -16 9 0 14 5 12 12 -6 18 -28 21 -28 4z"/>
<path d="M4670 7290 c0 -5 -21 -22 -47 -37 -27 -15 -52 -31 -58 -36 -5 -4 -25
-17 -43 -28 -28 -16 -33 -24 -30 -51 4 -45 31 -58 61 -30 13 12 28 22 35 22
18 0 81 68 88 95 3 14 10 28 15 31 15 9 10 44 -6 44 -8 0 -15 -4 -15 -10z"/>
<path d="M7037 7263 c-11 -11 -8 -58 5 -71 16 -16 53 -15 68 2 23 29 -47 95
-73 69z"/>
<path d="M4071 7226 c-21 -25 -2 -46 40 -46 34 0 39 3 39 24 0 35 -55 51 -79
22z"/>
<path d="M5644 7175 c-31 -63 -26 -78 27 -78 37 0 49 15 49 65 0 87 -35 93
-76 13z"/>
<path d="M6797 7163 c-13 -12 -7 -54 9 -60 23 -8 38 12 30 41 -6 25 -25 34
-39 19z"/>
<path d="M7875 7140 c-3 -5 1 -20 9 -32 9 -12 16 -35 16 -50 0 -27 22 -58 42
-58 11 0 76 -57 117 -103 123 -137 130 -142 147 -125 16 16 16 19 -2 45 -19
29 -26 38 -58 88 -11 17 -48 55 -83 85 -35 30 -70 70 -78 88 -9 21 -25 37 -45
43 -16 6 -30 15 -30 20 0 12 -27 11 -35 -1z"/>
<path d="M12462 7123 c2 -17 9 -28 18 -28 9 0 16 11 18 28 3 22 -1 27 -18 27
-17 0 -21 -5 -18 -27z"/>
<path d="M7720 7130 c0 -12 14 -31 49 -66 13 -13 21 -30 17 -39 -6 -17 -22
-20 -31 -5 -9 15 -51 12 -65 -5 -10 -12 -8 -21 10 -50 24 -39 39 -41 56 -7 6
13 14 25 17 28 11 12 64 -28 107 -80 52 -63 90 -75 90 -28 0 28 -31 65 -122
149 -26 24 -49 52 -53 63 -3 11 -15 20 -25 20 -10 0 -20 7 -24 15 -6 17 -26
20 -26 5z"/>
<path d="M4660 7083 c-43 -30 -48 -67 -10 -71 33 -3 106 58 97 82 -9 23 -46
18 -87 -11z"/>
<path d="M11300 7080 c0 -5 7 -10 15 -10 8 0 15 5 15 10 0 6 -7 10 -15 10 -8
0 -15 -4 -15 -10z"/>
<path d="M16700 7045 c-17 -44 -12 -64 16 -71 39 -10 60 16 48 58 -13 44 -49
51 -64 13z"/>
<path d="M16620 7050 c-17 -10 -13 -17 15 -22 12 -2 20 3 20 11 0 18 -16 23
-35 11z"/>
<path d="M12515 7040 c3 -5 8 -10 11 -10 2 0 4 5 4 10 0 6 -5 10 -11 10 -5 0
-7 -4 -4 -10z"/>
<path d="M6457 7023 c-15 -14 -6 -44 16 -52 13 -5 29 -16 36 -25 10 -12 17
-13 27 -5 11 9 10 18 -9 50 -21 37 -52 51 -70 32z"/>
<path d="M15203 7014 c-8 -22 9 -49 33 -49 30 0 27 59 -4 63 -14 2 -25 -3 -29
-14z"/>
<path d="M16211 7016 c-8 -9 -8 -22 -2 -38 11 -30 79 -88 102 -88 9 0 27 -8
40 -19 13 -10 51 -24 84 -31 33 -7 66 -18 74 -24 7 -6 70 -12 140 -14 107 -4
129 -2 140 12 21 26 6 43 -46 50 -26 4 -57 13 -67 21 -11 8 -39 15 -62 15 -26
0 -51 7 -67 20 -16 13 -48 22 -89 26 -56 6 -68 11 -102 45 -35 34 -46 39 -87
39 -27 0 -51 -6 -58 -14z"/>
<path d="M13441 6973 c-14 -25 7 -57 84 -133 64 -63 89 -80 165 -116 19 -9 37
-20 41 -25 3 -5 26 -13 52 -18 26 -4 54 -14 63 -21 21 -18 123 -31 146 -19 10
5 18 16 18 23 0 16 -77 76 -98 76 -8 0 -26 6 -40 14 -54 29 -161 76 -172 76
-7 0 -23 9 -37 20 -14 11 -33 20 -43 20 -9 0 -43 27 -74 60 -59 61 -88 73
-105 43z"/>
<path d="M15250 6921 c0 -24 25 -34 40 -16 15 18 5 35 -21 35 -12 0 -19 -7
-19 -19z"/>
<path d="M13932 6888 c-16 -16 3 -38 34 -38 17 0 24 6 24 19 0 28 -37 40 -58
19z"/>
<path d="M16880 6875 c0 -8 9 -15 20 -15 11 0 20 7 20 15 0 8 -9 15 -20 15
-11 0 -20 -7 -20 -15z"/>
<path d="M9797 6843 c-13 -12 -7 -51 14 -99 22 -52 33 -64 62 -64 28 0 23 72
-8 106 -13 14 -27 35 -30 45 -6 19 -26 25 -38 12z"/>
<path d="M14073 6695 c-24 -39 -14 -56 15 -27 11 11 25 21 33 24 16 5 5 38
-13 38 -7 -1 -23 -16 -35 -35z"/>
<path d="M8093 6693 c-18 -7 -16 -52 1 -59 8 -3 18 -19 21 -35 4 -16 15 -34
26 -39 10 -6 19 -17 19 -25 0 -10 11 -15 35 -15 41 0 46 18 16 65 -15 25 -99
117 -104 114 -1 0 -8 -3 -14 -6z"/>
<path d="M8260 6625 c0 -9 5 -15 11 -13 6 2 11 8 11 13 0 5 -5 11 -11 13 -6 2
-11 -4 -11 -13z"/>
</g>
</svg>
